<mxfile host="app.diagrams.net" modified="2021-07-14T17:40:01.972Z" agent="5.0 (Windows NT 10.0; Win64; x64) AppleWebKit/537.36 (KHTML, like Gecko) Chrome/91.0.4472.124 Safari/537.36" etag="BrETOJyBD7TxRtUWI1an" version="14.8.6" type="github">
  <diagram id="C5RBs43oDa-KdzZeNtuy" name="Page-1">
    <mxGraphModel dx="1141" dy="547" grid="1" gridSize="11" guides="1" tooltips="1" connect="1" arrows="1" fold="1" page="1" pageScale="1" pageWidth="827" pageHeight="1169" background="none" math="0" shadow="1">
      <root>
        <mxCell id="WIyWlLk6GJQsqaUBKTNV-0" />
        <mxCell id="WIyWlLk6GJQsqaUBKTNV-1" parent="WIyWlLk6GJQsqaUBKTNV-0" />
        <mxCell id="D3HDeSOzt5VXVgKv0Lmd-0" value="&lt;p style=&quot;margin: 0px ; margin-top: 4px ; margin-left: 10px ; text-align: left&quot;&gt;&lt;b&gt;&lt;font style=&quot;font-size: 15px&quot; face=&quot;Times New Roman&quot;&gt;Funzionali&lt;/font&gt;&lt;/b&gt;&lt;/p&gt;" style="html=1;shape=mxgraph.sysml.package;align=left;spacingLeft=5;verticalAlign=top;spacingTop=0;labelX=101;html=1;overflow=fill;strokeColor=#d6b656;fillColor=#fff2cc;strokeWidth=3;noLabel=0;autosize=0;gradientColor=#FFFFFF;" parent="WIyWlLk6GJQsqaUBKTNV-1" vertex="1">
          <mxGeometry x="44" y="308" width="660" height="660" as="geometry" />
        </mxCell>
        <mxCell id="D3HDeSOzt5VXVgKv0Lmd-4" value="&lt;p style=&quot;margin: 0px ; margin-top: 4px ; margin-left: 10px ; text-align: left&quot;&gt;&lt;b&gt;&lt;font face=&quot;Times New Roman&quot; style=&quot;font-size: 15px&quot;&gt;Analisi dei requisiti&lt;/font&gt;&lt;/b&gt;&lt;/p&gt;" style="html=1;shape=mxgraph.sysml.package;align=left;spacingLeft=5;verticalAlign=top;spacingTop=-3;labelX=150;html=1;overflow=fill;strokeColor=#82b366;strokeWidth=3;fillColor=#d5e8d4;gradientColor=#FFFFFF;" parent="WIyWlLk6GJQsqaUBKTNV-1" vertex="1">
          <mxGeometry x="44" y="44" width="660" height="220" as="geometry" />
        </mxCell>
        <mxCell id="D3HDeSOzt5VXVgKv0Lmd-6" value="&lt;p style=&quot;margin: 0px ; margin-top: 4px ; margin-left: 10px ; text-align: left&quot;&gt;&lt;b&gt;&lt;font style=&quot;font-size: 13px&quot; face=&quot;Times New Roman&quot;&gt;Non Funzionali&lt;/font&gt;&lt;/b&gt;&lt;/p&gt;" style="html=1;shape=mxgraph.sysml.package;align=left;spacingLeft=5;verticalAlign=top;spacingTop=-3;labelX=108;html=1;overflow=fill;strokeColor=#996185;strokeWidth=2;fontSize=12;fillColor=#e6d0de;shadow=1;gradientColor=#FFFFFF;" parent="WIyWlLk6GJQsqaUBKTNV-1" vertex="1">
          <mxGeometry x="396.5" y="125.63" width="250" height="65.75" as="geometry" />
        </mxCell>
        <mxCell id="D3HDeSOzt5VXVgKv0Lmd-5" value="&lt;p style=&quot;margin: 0px ; margin-top: 4px ; margin-left: 10px ; text-align: left&quot;&gt;&lt;b&gt;&lt;font face=&quot;Times New Roman&quot; style=&quot;font-size: 13px&quot;&gt;Funzionali&lt;/font&gt;&lt;/b&gt;&lt;/p&gt;" style="html=1;shape=mxgraph.sysml.package;align=left;spacingLeft=5;verticalAlign=top;spacingTop=-3;labelX=86;html=1;overflow=fill;fontSize=12;strokeColor=#d6b656;fillColor=#fff2cc;strokeWidth=2;shadow=1;gradientColor=#FFFFFF;" parent="WIyWlLk6GJQsqaUBKTNV-1" vertex="1">
          <mxGeometry x="91" y="75" width="264" height="167" as="geometry" />
        </mxCell>
        <mxCell id="Pwwx5OgXnvk-JeBYDkTg-12" value="&lt;font style=&quot;font-size: 14px&quot;&gt;&lt;font&gt;&lt;b&gt;&lt;font style=&quot;font-size: 14px&quot;&gt;+&lt;/font&gt;&lt;font face=&quot;Times New Roman&quot; style=&quot;font-size: 13px&quot;&gt;&amp;nbsp;&amp;nbsp;&lt;/font&gt;&lt;/b&gt;&lt;/font&gt;&lt;span style=&quot;font-size: 13px ; font-family: &amp;#34;times new roman&amp;#34;&quot;&gt;Generale&lt;/span&gt;&lt;br&gt;&lt;b&gt;&lt;font style=&quot;font-size: 14px&quot;&gt;+&lt;/font&gt;&lt;/b&gt;&lt;span style=&quot;font-size: 13px ; font-family: &amp;#34;times new roman&amp;#34;&quot;&gt;&amp;nbsp;&lt;/span&gt;&lt;span style=&quot;font-size: 13px ; font-family: &amp;#34;times new roman&amp;#34;&quot;&gt;&amp;nbsp;Gestione Camere&lt;/span&gt;&lt;br&gt;&lt;b&gt;&lt;font style=&quot;font-size: 14px&quot;&gt;+&lt;/font&gt;&lt;/b&gt;&lt;span style=&quot;font-size: 13px ; font-family: &amp;#34;times new roman&amp;#34;&quot;&gt;&amp;nbsp; Gestione Bar&lt;/span&gt;&lt;br&gt;&lt;b&gt;&lt;font style=&quot;font-size: 14px&quot;&gt;+&lt;/font&gt;&lt;/b&gt;&lt;span style=&quot;font-size: 13px ; font-family: &amp;#34;times new roman&amp;#34;&quot;&gt;&amp;nbsp;&lt;/span&gt;&lt;span style=&quot;font-family: &amp;#34;times new roman&amp;#34; ; font-size: 13px&quot;&gt;&amp;nbsp;Gestione Ombrelloni&lt;br&gt;&lt;/span&gt;&lt;b&gt;+&lt;/b&gt;&lt;span style=&quot;font-size: 13px ; font-family: &amp;#34;times new roman&amp;#34;&quot;&gt;&amp;nbsp;&lt;/span&gt;&lt;span style=&quot;font-family: &amp;#34;times new roman&amp;#34; ; font-size: 13px&quot;&gt;&amp;nbsp;Gestione Dipendenti&lt;br&gt;&lt;/span&gt;&lt;b&gt;+&lt;/b&gt;&lt;span style=&quot;font-size: 13px ; font-family: &amp;#34;times new roman&amp;#34;&quot;&gt;&amp;nbsp;&lt;/span&gt;&lt;span style=&quot;font-family: &amp;#34;times new roman&amp;#34; ; font-size: 13px&quot;&gt;&amp;nbsp;Gestione Fornitori&lt;br&gt;&lt;/span&gt;&lt;b&gt;+&lt;/b&gt;&lt;span style=&quot;font-size: 13px ; font-family: &amp;#34;times new roman&amp;#34;&quot;&gt;&amp;nbsp;&lt;/span&gt;&lt;span style=&quot;font-family: &amp;#34;times new roman&amp;#34; ; font-size: 13px&quot;&gt;&amp;nbsp;Gestione Clienti&lt;/span&gt;&lt;span style=&quot;font-family: &amp;#34;times new roman&amp;#34; ; font-size: 13px&quot;&gt;&lt;br&gt;&lt;/span&gt;&lt;b&gt;+&lt;/b&gt;&lt;span style=&quot;font-size: 13px ; font-family: &amp;#34;times new roman&amp;#34;&quot;&gt;&amp;nbsp;&lt;/span&gt;&lt;span style=&quot;font-family: &amp;#34;times new roman&amp;#34; ; font-size: 13px&quot;&gt;&amp;nbsp;Gestione Ristorante&lt;br&gt;&lt;/span&gt;&lt;/font&gt;" style="text;strokeColor=none;fillColor=none;html=1;whiteSpace=wrap;verticalAlign=middle;overflow=hidden;" parent="WIyWlLk6GJQsqaUBKTNV-1" vertex="1">
          <mxGeometry x="120" y="99" width="160" height="143" as="geometry" />
        </mxCell>
        <mxCell id="Pwwx5OgXnvk-JeBYDkTg-14" value="&lt;b style=&quot;font-size: 14px&quot;&gt;+&lt;font face=&quot;Times New Roman&quot;&gt;&amp;nbsp;&amp;nbsp;&lt;/font&gt;&lt;/b&gt;&lt;span style=&quot;font-family: &amp;#34;times new roman&amp;#34;&quot;&gt;Requisiti non funzionali&lt;br&gt;&lt;/span&gt;" style="text;html=1;whiteSpace=wrap;verticalAlign=middle;overflow=hidden;" parent="WIyWlLk6GJQsqaUBKTNV-1" vertex="1">
          <mxGeometry x="414" y="143" width="180" height="39" as="geometry" />
        </mxCell>
        <mxCell id="D3HDeSOzt5VXVgKv0Lmd-7" value="&lt;p style=&quot;margin: 0px ; margin-top: 4px ; margin-left: 10px ; text-align: left&quot;&gt;&lt;b&gt;&lt;font style=&quot;font-size: 14px&quot; face=&quot;Times New Roman&quot;&gt;Gestione Camere&lt;/font&gt;&lt;/b&gt;&lt;/p&gt;" style="html=1;shape=mxgraph.sysml.package;align=left;spacingLeft=5;verticalAlign=top;spacingTop=-3;labelX=135;html=1;overflow=fill;strokeColor=#6c8ebf;strokeWidth=2;fontSize=12;fillColor=#dae8fc;shadow=1;gradientColor=#FFFFFF;" parent="WIyWlLk6GJQsqaUBKTNV-1" vertex="1">
          <mxGeometry x="93" y="440" width="265" height="188.5" as="geometry" />
        </mxCell>
        <mxCell id="D3HDeSOzt5VXVgKv0Lmd-12" value="&lt;font&gt;&lt;font&gt;&lt;font style=&quot;font-weight: bold ; font-size: 14px&quot;&gt;&lt;font face=&quot;Helvetica&quot;&gt;+&lt;/font&gt; RF3&lt;/font&gt;&lt;font style=&quot;font-size: 13px&quot;&gt;&lt;b&gt;&amp;nbsp;&lt;/b&gt;Aggiungi Camera&lt;br&gt;&lt;/font&gt;&lt;/font&gt;&lt;font face=&quot;Helvetica&quot; style=&quot;font-size: 14px ; font-weight: 700&quot;&gt;+&lt;/font&gt;&lt;span style=&quot;font-size: 14px ; font-weight: 700&quot;&gt;&amp;nbsp;RF4&lt;/span&gt;&lt;span style=&quot;font-size: 14px ; font-weight: 700&quot;&gt;&amp;nbsp;&lt;/span&gt;&lt;font style=&quot;font-size: 13px&quot;&gt;Visualizza Camera&lt;br&gt;&lt;/font&gt;&lt;font face=&quot;Helvetica&quot; style=&quot;font-size: 14px ; font-weight: 700&quot;&gt;+&lt;/font&gt;&lt;span style=&quot;font-size: 14px ; font-weight: 700&quot;&gt;&amp;nbsp;RF5&lt;/span&gt;&lt;span style=&quot;font-size: 14px ; font-weight: 700&quot;&gt;&amp;nbsp;&lt;/span&gt;&lt;font style=&quot;font-size: 13px&quot;&gt;Cerca Camera&lt;br&gt;&lt;/font&gt;&lt;font face=&quot;Helvetica&quot; style=&quot;font-size: 14px ; font-weight: 700&quot;&gt;+&lt;/font&gt;&lt;span style=&quot;font-size: 14px ; font-weight: 700&quot;&gt;&amp;nbsp;RF6&lt;/span&gt;&lt;span style=&quot;font-size: 14px ; font-weight: 700&quot;&gt;&amp;nbsp;&lt;/span&gt;&lt;font style=&quot;font-size: 13px&quot;&gt;Modifica Camera&lt;/font&gt;&lt;br&gt;&lt;font face=&quot;Helvetica&quot; style=&quot;font-size: 14px ; font-weight: 700&quot;&gt;+&lt;/font&gt;&lt;span style=&quot;font-size: 14px ; font-weight: 700&quot;&gt;&amp;nbsp;RF7&lt;/span&gt;&lt;span style=&quot;font-size: 13px&quot;&gt;&amp;nbsp;Rimuovi&amp;nbsp;&lt;/span&gt;&lt;span style=&quot;font-size: 13px&quot;&gt;Camera&lt;/span&gt;&lt;br&gt;&lt;font face=&quot;Helvetica&quot; style=&quot;font-size: 14px ; font-weight: 700&quot;&gt;+&lt;/font&gt;&lt;span style=&quot;font-size: 14px ; font-weight: 700&quot;&gt;&amp;nbsp;RF8&lt;/span&gt;&lt;span style=&quot;font-size: 13px&quot;&gt;&amp;nbsp;Prenotazione Camera&lt;br&gt;&lt;/span&gt;&lt;font face=&quot;Helvetica&quot; style=&quot;font-size: 14px ; font-weight: 700&quot;&gt;+&lt;/font&gt;&lt;span style=&quot;font-size: 14px ; font-weight: 700&quot;&gt;&amp;nbsp;RF9&lt;/span&gt;&lt;span style=&quot;font-size: 13px&quot;&gt;&amp;nbsp;&lt;/span&gt;&lt;span style=&quot;font-size: 13px&quot;&gt;Visualizza Prenotazione&lt;/span&gt;&lt;br&gt;&lt;font face=&quot;Helvetica&quot; style=&quot;font-size: 14px ; font-weight: 700&quot;&gt;+&lt;/font&gt;&lt;span style=&quot;font-size: 14px ; font-weight: 700&quot;&gt;&amp;nbsp;RF10&lt;/span&gt;&lt;span style=&quot;font-size: 13px&quot;&gt;&amp;nbsp;&lt;/span&gt;&lt;span style=&quot;font-size: 13px&quot;&gt;Modifica Prenotazione&lt;/span&gt;&lt;br&gt;&lt;font face=&quot;Helvetica&quot; style=&quot;font-size: 14px ; font-weight: 700&quot;&gt;+&lt;/font&gt;&lt;span style=&quot;font-size: 14px ; font-weight: 700&quot;&gt;&amp;nbsp;RF11&lt;/span&gt;&lt;span style=&quot;font-size: 13px&quot;&gt;&amp;nbsp;&lt;/span&gt;&lt;span style=&quot;font-size: 13px&quot;&gt;Rimuovi Prenotazione&lt;/span&gt;&lt;/font&gt;" style="text;strokeColor=none;fillColor=none;html=1;whiteSpace=wrap;verticalAlign=middle;overflow=hidden;fontFamily=Times New Roman;" parent="WIyWlLk6GJQsqaUBKTNV-1" vertex="1">
          <mxGeometry x="102.5" y="462" width="241" height="154" as="geometry" />
        </mxCell>
        <mxCell id="D3HDeSOzt5VXVgKv0Lmd-18" value="&lt;p style=&quot;margin: 0px ; margin-top: 4px ; margin-left: 10px ; text-align: left&quot;&gt;&lt;b&gt;&lt;font style=&quot;font-size: 13px&quot; face=&quot;Times New Roman&quot;&gt;Non Funzionali&lt;/font&gt;&lt;/b&gt;&lt;/p&gt;" style="html=1;shape=mxgraph.sysml.package;align=left;spacingLeft=5;verticalAlign=top;spacingTop=-3;labelX=108;html=1;overflow=fill;strokeWidth=2;fontSize=12;shadow=1;strokeColor=#d6b656;fillColor=#fff2cc;gradientColor=#FFFFFF;" parent="WIyWlLk6GJQsqaUBKTNV-1" vertex="1">
          <mxGeometry x="198" y="990" width="352" height="165" as="geometry" />
        </mxCell>
        <mxCell id="D3HDeSOzt5VXVgKv0Lmd-19" value="&lt;p style=&quot;margin: 0px ; margin-top: 4px ; margin-left: 10px ; text-align: left&quot;&gt;&lt;b&gt;&lt;font style=&quot;font-size: 13px&quot; face=&quot;Times New Roman&quot;&gt;Non Funzionali&lt;/font&gt;&lt;/b&gt;&lt;/p&gt;" style="html=1;shape=mxgraph.sysml.package;align=left;spacingLeft=5;verticalAlign=top;spacingTop=-3;labelX=108;html=1;overflow=fill;strokeWidth=2;fontSize=12;shadow=1;strokeColor=#666666;fillColor=#f5f5f5;gradientColor=#FFFFFF;" parent="WIyWlLk6GJQsqaUBKTNV-1" vertex="1">
          <mxGeometry x="245" y="1023" width="261" height="107.25" as="geometry" />
        </mxCell>
        <mxCell id="D3HDeSOzt5VXVgKv0Lmd-20" value="&lt;font&gt;&lt;font&gt;&lt;font style=&quot;font-weight: bold ; font-size: 14px&quot;&gt;&lt;font face=&quot;Helvetica&quot;&gt;+&lt;/font&gt;&amp;nbsp;RNF1&lt;/font&gt;&lt;font style=&quot;font-weight: bold ; font-size: 13px&quot;&gt;&amp;nbsp; &lt;/font&gt;&lt;font style=&quot;font-size: 13px&quot;&gt;Implementazione&lt;/font&gt;&lt;/font&gt;&lt;br&gt;&lt;font face=&quot;Helvetica&quot; style=&quot;font-size: 14px ; font-weight: 700&quot;&gt;+&lt;/font&gt;&lt;span style=&quot;font-size: 14px ; font-weight: 700&quot;&gt;&amp;nbsp;RNF&lt;/span&gt;&lt;b&gt;&lt;font style=&quot;font-size: 14px&quot;&gt;2&lt;/font&gt;&lt;/b&gt;&lt;span style=&quot;font-size: 13px&quot;&gt;&amp;nbsp;&lt;/span&gt;&lt;span style=&quot;font-size: 13px&quot;&gt;&amp;nbsp;Interfaccia&lt;br&gt;&lt;/span&gt;&lt;font&gt;&lt;font face=&quot;Helvetica&quot; style=&quot;font-size: 14px ; font-weight: 700&quot;&gt;+&lt;/font&gt;&lt;span style=&quot;font-size: 14px ; font-weight: 700&quot;&gt;&amp;nbsp;RNF3&lt;/span&gt;&lt;b style=&quot;font-size: 14px&quot;&gt;&amp;nbsp;&amp;nbsp;&lt;/b&gt;&lt;font style=&quot;font-size: 13px&quot;&gt;ID&lt;/font&gt;&lt;br&gt;&lt;/font&gt;&lt;font face=&quot;Helvetica&quot; style=&quot;font-size: 14px ; font-weight: 700&quot;&gt;+&lt;/font&gt;&lt;span style=&quot;font-size: 14px ; font-weight: 700&quot;&gt;&amp;nbsp;RNF4&lt;/span&gt;&lt;b&gt;&lt;font style=&quot;font-size: 14px&quot;&gt;&amp;nbsp;&amp;nbsp;&lt;/font&gt;&lt;/b&gt;&lt;span style=&quot;font-size: 13px&quot;&gt;Database relazionali&lt;/span&gt;&lt;br&gt;&lt;/font&gt;" style="text;strokeColor=none;fillColor=none;html=1;whiteSpace=wrap;verticalAlign=middle;overflow=hidden;fontFamily=Times New Roman;" parent="WIyWlLk6GJQsqaUBKTNV-1" vertex="1">
          <mxGeometry x="257" y="1045.25" width="183" height="85" as="geometry" />
        </mxCell>
        <mxCell id="4B_8ZGpId8C0Z32hghVD-11" value="&lt;p style=&quot;margin: 0px ; margin-top: 4px ; margin-left: 10px ; text-align: left&quot;&gt;&lt;b&gt;&lt;font style=&quot;font-size: 14px&quot; face=&quot;Times New Roman&quot;&gt;Gestione Ombrelloni&lt;/font&gt;&lt;/b&gt;&lt;/p&gt;" style="html=1;shape=mxgraph.sysml.package;align=left;spacingLeft=5;verticalAlign=top;spacingTop=-3;labelX=135;html=1;overflow=fill;strokeColor=#6c8ebf;strokeWidth=2;fontSize=12;fillColor=#dae8fc;shadow=1;gradientColor=#FFFFFF;" vertex="1" parent="WIyWlLk6GJQsqaUBKTNV-1">
          <mxGeometry x="93" y="781.75" width="264" height="99" as="geometry" />
        </mxCell>
        <mxCell id="4B_8ZGpId8C0Z32hghVD-12" value="&lt;p style=&quot;margin: 0px ; margin-top: 4px ; margin-left: 10px ; text-align: left&quot;&gt;&lt;b&gt;&lt;font style=&quot;font-size: 14px&quot; face=&quot;Times New Roman&quot;&gt;Gestione Bar&lt;/font&gt;&lt;/b&gt;&lt;/p&gt;" style="html=1;shape=mxgraph.sysml.package;align=left;spacingLeft=5;verticalAlign=top;spacingTop=-3;labelX=135;html=1;overflow=fill;strokeColor=#6c8ebf;strokeWidth=2;fontSize=12;fillColor=#dae8fc;shadow=1;gradientColor=#FFFFFF;" vertex="1" parent="WIyWlLk6GJQsqaUBKTNV-1">
          <mxGeometry x="93" y="638.75" width="264" height="132" as="geometry" />
        </mxCell>
        <mxCell id="4B_8ZGpId8C0Z32hghVD-13" value="&lt;p style=&quot;margin: 0px ; margin-top: 4px ; margin-left: 10px ; text-align: left&quot;&gt;&lt;font face=&quot;Times New Roman&quot;&gt;&lt;span style=&quot;font-size: 14px&quot;&gt;&lt;b&gt;Gestione Ristorante&lt;/b&gt;&lt;/span&gt;&lt;/font&gt;&lt;/p&gt;" style="html=1;shape=mxgraph.sysml.package;align=left;spacingLeft=5;verticalAlign=top;spacingTop=-3;labelX=135;html=1;overflow=fill;strokeColor=#6c8ebf;strokeWidth=2;fontSize=12;fillColor=#dae8fc;shadow=1;gradientColor=#FFFFFF;" vertex="1" parent="WIyWlLk6GJQsqaUBKTNV-1">
          <mxGeometry x="402" y="781.75" width="263" height="153.25" as="geometry" />
        </mxCell>
        <mxCell id="4B_8ZGpId8C0Z32hghVD-14" value="&lt;p style=&quot;margin: 0px ; margin-top: 4px ; margin-left: 10px ; text-align: left&quot;&gt;&lt;b&gt;&lt;font style=&quot;font-size: 14px&quot; face=&quot;Times New Roman&quot;&gt;Gestione Clienti&lt;/font&gt;&lt;/b&gt;&lt;/p&gt;" style="html=1;shape=mxgraph.sysml.package;align=left;spacingLeft=5;verticalAlign=top;spacingTop=-3;labelX=135;html=1;overflow=fill;strokeColor=#6c8ebf;strokeWidth=2;fontSize=12;fillColor=#dae8fc;shadow=1;gradientColor=#FFFFFF;" vertex="1" parent="WIyWlLk6GJQsqaUBKTNV-1">
          <mxGeometry x="403" y="638.75" width="264" height="132" as="geometry" />
        </mxCell>
        <mxCell id="4B_8ZGpId8C0Z32hghVD-15" value="&lt;p style=&quot;margin: 0px ; margin-top: 4px ; margin-left: 10px ; text-align: left&quot;&gt;&lt;font face=&quot;Times New Roman&quot;&gt;&lt;span style=&quot;font-size: 14px&quot;&gt;&lt;b&gt;Generale&lt;/b&gt;&lt;/span&gt;&lt;/font&gt;&lt;/p&gt;" style="html=1;shape=mxgraph.sysml.package;align=left;spacingLeft=5;verticalAlign=top;spacingTop=-3;labelX=135;html=1;overflow=fill;strokeColor=#6c8ebf;strokeWidth=2;fontSize=12;fillColor=#dae8fc;shadow=1;gradientColor=#FFFFFF;" vertex="1" parent="WIyWlLk6GJQsqaUBKTNV-1">
          <mxGeometry x="94" y="352" width="264" height="77" as="geometry" />
        </mxCell>
        <mxCell id="4B_8ZGpId8C0Z32hghVD-16" value="&lt;font&gt;&lt;font&gt;&lt;font style=&quot;font-weight: bold ; font-size: 14px&quot;&gt;&lt;font face=&quot;Helvetica&quot;&gt;+&lt;/font&gt;&amp;nbsp;RF18&amp;nbsp;&lt;font style=&quot;font-weight: 400 ; font-size: 13px&quot;&gt;Visualizza Lista Ombrelloni&lt;/font&gt;&lt;br style=&quot;font-size: 12px ; font-weight: 400&quot;&gt;&lt;font face=&quot;Helvetica&quot;&gt;+&lt;/font&gt; RF19&lt;/font&gt;&lt;font style=&quot;font-size: 13px&quot;&gt;&lt;b&gt;&amp;nbsp;&lt;/b&gt;Prenota Ombrellone&lt;br&gt;&lt;/font&gt;&lt;/font&gt;&lt;font face=&quot;Helvetica&quot; style=&quot;font-size: 14px ; font-weight: 700&quot;&gt;+&lt;/font&gt;&lt;span style=&quot;font-size: 14px ; font-weight: 700&quot;&gt;&amp;nbsp;RF20&lt;/span&gt;&lt;span style=&quot;font-size: 14px ; font-weight: 700&quot;&gt;&amp;nbsp;&lt;/span&gt;&lt;font style=&quot;font-size: 13px&quot;&gt;Visualizza Prenotazione&lt;/font&gt;&lt;br&gt;&lt;font face=&quot;Helvetica&quot; style=&quot;font-size: 14px ; font-weight: 700&quot;&gt;+&lt;/font&gt;&lt;span style=&quot;font-size: 14px ; font-weight: 700&quot;&gt;&amp;nbsp;RF21&amp;nbsp;&lt;/span&gt;&lt;span style=&quot;font-size: 14px&quot;&gt;Rimuovi&lt;/span&gt;&lt;font style=&quot;font-size: 13px&quot;&gt;&amp;nbsp;Prenotazione&lt;/font&gt;&lt;/font&gt;" style="text;strokeColor=none;fillColor=none;html=1;whiteSpace=wrap;verticalAlign=middle;overflow=hidden;fontFamily=Times New Roman;" vertex="1" parent="WIyWlLk6GJQsqaUBKTNV-1">
          <mxGeometry x="103" y="805.25" width="220" height="75.5" as="geometry" />
        </mxCell>
        <mxCell id="4B_8ZGpId8C0Z32hghVD-17" value="&lt;font&gt;&lt;font&gt;&lt;font style=&quot;font-weight: bold ; font-size: 14px&quot;&gt;&lt;font face=&quot;Helvetica&quot;&gt;+&lt;/font&gt;&amp;nbsp;RF12&lt;/font&gt;&lt;font style=&quot;font-size: 14px&quot;&gt;&amp;nbsp;Aggiungi Consumazione&lt;br&gt;&lt;/font&gt;&lt;font&gt;&lt;font style=&quot;font-weight: bold ; font-size: 14px&quot;&gt;&lt;font face=&quot;Helvetica&quot;&gt;+&lt;/font&gt;&amp;nbsp;RF13&lt;/font&gt;&lt;font style=&quot;font-size: 14px&quot;&gt;&amp;nbsp;Rimuovi Consumazione&lt;br&gt;&lt;/font&gt;&lt;font style=&quot;font-weight: bold ; font-size: 14px&quot;&gt;&lt;font face=&quot;Helvetica&quot;&gt;+&lt;/font&gt;&amp;nbsp;RF14&lt;/font&gt;&lt;font style=&quot;font-size: 14px&quot;&gt;&amp;nbsp;Stampa Conto Consumazione&lt;/font&gt;&lt;br&gt;&lt;font face=&quot;Helvetica&quot; style=&quot;font-size: 14px ; font-weight: bold&quot;&gt;+&lt;/font&gt;&lt;span style=&quot;font-size: 14px&quot;&gt;&lt;b&gt; RF15&lt;/b&gt;&amp;nbsp;&lt;/span&gt;&lt;/font&gt;&lt;font style=&quot;font-size: 13px&quot;&gt;Visualizza Listino Prezzi&lt;br&gt;&lt;/font&gt;&lt;/font&gt;&lt;font face=&quot;Helvetica&quot; style=&quot;font-size: 14px ; font-weight: 700&quot;&gt;+&lt;/font&gt;&lt;span style=&quot;font-size: 14px ; font-weight: 700&quot;&gt;&amp;nbsp;RF16&lt;/span&gt;&lt;span style=&quot;font-size: 14px&quot;&gt;&amp;nbsp;&lt;/span&gt;&lt;span style=&quot;font-size: 13px&quot;&gt;Aggiungi Voce Listino&lt;/span&gt;&lt;br&gt;&lt;font face=&quot;Helvetica&quot; style=&quot;font-size: 14px ; font-weight: 700&quot;&gt;+&lt;/font&gt;&lt;span style=&quot;font-size: 14px ; font-weight: 700&quot;&gt;&amp;nbsp;RF17&lt;/span&gt;&lt;span style=&quot;font-size: 14px&quot;&gt;&amp;nbsp;&lt;/span&gt;&lt;span style=&quot;font-size: 14px&quot;&gt;Rimuovi&lt;/span&gt;&lt;font style=&quot;font-size: 13px&quot;&gt;&amp;nbsp;Voce Listino&lt;/font&gt;&lt;/font&gt;" style="text;strokeColor=none;fillColor=none;html=1;whiteSpace=wrap;verticalAlign=middle;overflow=hidden;fontFamily=Times New Roman;" vertex="1" parent="WIyWlLk6GJQsqaUBKTNV-1">
          <mxGeometry x="103" y="645" width="220" height="136.5" as="geometry" />
        </mxCell>
        <mxCell id="4B_8ZGpId8C0Z32hghVD-18" value="&lt;font&gt;&lt;font&gt;&lt;font style=&quot;font-weight: bold ; font-size: 14px&quot;&gt;&lt;font face=&quot;Helvetica&quot;&gt;+&lt;/font&gt;&amp;nbsp;RF40&lt;/font&gt;&lt;font style=&quot;font-size: 14px&quot;&gt;&amp;nbsp;Visualizza Lista Tavoli&lt;br&gt;&lt;/font&gt;&lt;font&gt;&lt;font style=&quot;font-weight: bold ; font-size: 14px&quot;&gt;&lt;font face=&quot;Helvetica&quot;&gt;+&lt;/font&gt;&amp;nbsp;RF41&lt;/font&gt;&lt;font style=&quot;font-size: 14px&quot;&gt;&amp;nbsp;Prenota Tavolo&lt;br&gt;&lt;/font&gt;&lt;font style=&quot;font-weight: bold ; font-size: 14px&quot;&gt;&lt;font face=&quot;Helvetica&quot;&gt;+&lt;/font&gt;&amp;nbsp;RF42&lt;/font&gt;&lt;font style=&quot;font-size: 14px&quot;&gt;&amp;nbsp;Visualizza Prenotazione&lt;/font&gt;&lt;br&gt;&lt;font face=&quot;Helvetica&quot; style=&quot;font-size: 14px ; font-weight: bold&quot;&gt;+&lt;/font&gt;&lt;span style=&quot;font-size: 14px&quot;&gt;&lt;b&gt; RF43&lt;/b&gt;&amp;nbsp;Rimuovi Prenotazione&lt;/span&gt;&lt;/font&gt;&lt;font style=&quot;font-size: 13px&quot;&gt;&lt;br&gt;&lt;/font&gt;&lt;/font&gt;&lt;font face=&quot;Helvetica&quot; style=&quot;font-size: 14px ; font-weight: 700&quot;&gt;+&lt;/font&gt;&lt;span style=&quot;font-size: 14px ; font-weight: 700&quot;&gt;&amp;nbsp;RF44&lt;/span&gt;&lt;span style=&quot;font-size: 14px&quot;&gt;&amp;nbsp;Aggiungi Ordine&lt;/span&gt;&lt;br&gt;&lt;font face=&quot;Helvetica&quot; style=&quot;font-size: 14px ; font-weight: 700&quot;&gt;+&lt;/font&gt;&lt;span style=&quot;font-size: 14px ; font-weight: 700&quot;&gt;&amp;nbsp;RF45&amp;nbsp;&lt;/span&gt;&lt;span style=&quot;font-size: 14px&quot;&gt;Rimuovi Ordine&lt;br&gt;&lt;/span&gt;&lt;font face=&quot;Helvetica&quot; style=&quot;font-size: 14px ; font-weight: 700&quot;&gt;+&lt;/font&gt;&lt;span style=&quot;font-size: 14px ; font-weight: 700&quot;&gt;&amp;nbsp;RF46&lt;/span&gt;&lt;span style=&quot;font-size: 14px&quot;&gt;&amp;nbsp;Stampa Conto Ordine&lt;/span&gt;&lt;span style=&quot;font-size: 14px&quot;&gt;&lt;br&gt;&lt;/span&gt;&lt;/font&gt;" style="text;strokeColor=none;fillColor=none;html=1;whiteSpace=wrap;verticalAlign=middle;overflow=hidden;fontFamily=Times New Roman;" vertex="1" parent="WIyWlLk6GJQsqaUBKTNV-1">
          <mxGeometry x="411.5" y="805.25" width="220" height="118.75" as="geometry" />
        </mxCell>
        <mxCell id="4B_8ZGpId8C0Z32hghVD-20" value="&lt;font&gt;&lt;font&gt;&lt;font style=&quot;font-weight: bold ; font-size: 14px&quot;&gt;&lt;font face=&quot;Helvetica&quot;&gt;+&lt;/font&gt;&amp;nbsp;RF34&lt;/font&gt;&lt;font style=&quot;font-size: 14px&quot;&gt;&amp;nbsp;Visualizza Clienti&lt;br&gt;&lt;/font&gt;&lt;font&gt;&lt;font style=&quot;font-weight: bold ; font-size: 14px&quot;&gt;&lt;font face=&quot;Helvetica&quot;&gt;+&lt;/font&gt;&amp;nbsp;RF35&lt;/font&gt;&lt;font style=&quot;font-size: 14px&quot;&gt;&amp;nbsp;Aggiungi Clienti&lt;br&gt;&lt;/font&gt;&lt;font style=&quot;font-weight: bold ; font-size: 14px&quot;&gt;&lt;font face=&quot;Helvetica&quot;&gt;+&lt;/font&gt;&amp;nbsp;RF36&lt;/font&gt;&lt;font style=&quot;font-size: 14px&quot;&gt;&amp;nbsp;Modifica Clienti&lt;/font&gt;&lt;br&gt;&lt;font face=&quot;Helvetica&quot; style=&quot;font-size: 14px ; font-weight: bold&quot;&gt;+&lt;/font&gt;&lt;span style=&quot;font-size: 14px&quot;&gt;&lt;b&gt; RF37&lt;/b&gt;&amp;nbsp;Elimina Clienti&lt;/span&gt;&lt;/font&gt;&lt;font style=&quot;font-size: 13px&quot;&gt;&lt;br&gt;&lt;/font&gt;&lt;/font&gt;&lt;font face=&quot;Helvetica&quot; style=&quot;font-size: 14px ; font-weight: 700&quot;&gt;+&lt;/font&gt;&lt;span style=&quot;font-size: 14px ; font-weight: 700&quot;&gt;&amp;nbsp;RF38&lt;/span&gt;&lt;span style=&quot;font-size: 14px&quot;&gt;&amp;nbsp;Ricerca Clienti&lt;/span&gt;&lt;br&gt;&lt;font face=&quot;Helvetica&quot; style=&quot;font-size: 14px ; font-weight: 700&quot;&gt;+&lt;/font&gt;&lt;span style=&quot;font-size: 14px ; font-weight: 700&quot;&gt;&amp;nbsp;RF39&lt;/span&gt;&lt;span style=&quot;font-size: 14px&quot;&gt;&amp;nbsp;Crea PDF Lista Clienti&lt;/span&gt;&lt;/font&gt;" style="text;strokeColor=none;fillColor=none;html=1;whiteSpace=wrap;verticalAlign=middle;overflow=hidden;fontFamily=Times New Roman;" vertex="1" parent="WIyWlLk6GJQsqaUBKTNV-1">
          <mxGeometry x="413" y="660.75" width="220" height="111.5" as="geometry" />
        </mxCell>
        <mxCell id="4B_8ZGpId8C0Z32hghVD-21" value="&lt;font&gt;&lt;font&gt;&lt;font style=&quot;font-weight: bold ; font-size: 14px&quot;&gt;&lt;font face=&quot;Helvetica&quot;&gt;+&lt;/font&gt;&amp;nbsp;RF1&lt;/font&gt;&lt;font style=&quot;font-size: 14px&quot;&gt;&amp;nbsp;Login&lt;br&gt;&lt;font style=&quot;font-weight: bold&quot;&gt;&lt;font face=&quot;Helvetica&quot;&gt;+&lt;/font&gt;&amp;nbsp;RF2&lt;/font&gt;&amp;nbsp;Cerca Meteo&lt;br&gt;&lt;/font&gt;&lt;/font&gt;&lt;/font&gt;" style="text;strokeColor=none;fillColor=none;html=1;whiteSpace=wrap;verticalAlign=middle;overflow=hidden;fontFamily=Times New Roman;" vertex="1" parent="WIyWlLk6GJQsqaUBKTNV-1">
          <mxGeometry x="106" y="374" width="240" height="43.75" as="geometry" />
        </mxCell>
        <mxCell id="4B_8ZGpId8C0Z32hghVD-31" value="&lt;p style=&quot;margin: 0px ; margin-top: 4px ; margin-left: 10px ; text-align: left&quot;&gt;&lt;b&gt;&lt;font style=&quot;font-size: 14px&quot; face=&quot;Times New Roman&quot;&gt;Gestione Dipendenti&lt;/font&gt;&lt;/b&gt;&lt;/p&gt;" style="html=1;shape=mxgraph.sysml.package;align=left;spacingLeft=5;verticalAlign=top;spacingTop=-3;labelX=135;html=1;overflow=fill;strokeColor=#6c8ebf;strokeWidth=2;fontSize=12;fillColor=#dae8fc;shadow=1;gradientColor=#FFFFFF;" vertex="1" parent="WIyWlLk6GJQsqaUBKTNV-1">
          <mxGeometry x="402" y="352" width="265" height="132" as="geometry" />
        </mxCell>
        <mxCell id="4B_8ZGpId8C0Z32hghVD-32" value="&lt;font&gt;&lt;font&gt;&lt;font style=&quot;font-weight: bold ; font-size: 14px&quot;&gt;&lt;font face=&quot;Helvetica&quot;&gt;+&lt;/font&gt;&amp;nbsp;RF22&lt;/font&gt;&lt;font style=&quot;font-size: 14px&quot;&gt;&amp;nbsp;Visualizza Dipendenti&lt;br&gt;&lt;/font&gt;&lt;font&gt;&lt;font style=&quot;font-weight: bold ; font-size: 14px&quot;&gt;&lt;font face=&quot;Helvetica&quot;&gt;+&lt;/font&gt;&amp;nbsp;RF23&lt;/font&gt;&lt;font style=&quot;font-size: 14px&quot;&gt;&amp;nbsp;Aggiungi Dipendenti&lt;br&gt;&lt;/font&gt;&lt;font style=&quot;font-weight: bold ; font-size: 14px&quot;&gt;&lt;font face=&quot;Helvetica&quot;&gt;+&lt;/font&gt;&amp;nbsp;RF24&lt;/font&gt;&lt;font style=&quot;font-size: 14px&quot;&gt;&amp;nbsp;Modifica&amp;nbsp;&lt;/font&gt;&lt;span style=&quot;font-size: 14px&quot;&gt;Dipendenti&lt;/span&gt;&lt;br&gt;&lt;font face=&quot;Helvetica&quot; style=&quot;font-size: 14px ; font-weight: bold&quot;&gt;+&lt;/font&gt;&lt;span style=&quot;font-size: 14px&quot;&gt;&lt;b&gt; RF25&lt;/b&gt;&amp;nbsp;Elimina&amp;nbsp;&lt;/span&gt;&lt;/font&gt;&lt;font style=&quot;font-size: 13px&quot;&gt;&lt;span style=&quot;font-size: 14px&quot;&gt;Dipendenti&lt;/span&gt;&lt;br&gt;&lt;/font&gt;&lt;/font&gt;&lt;font face=&quot;Helvetica&quot; style=&quot;font-size: 14px ; font-weight: 700&quot;&gt;+&lt;/font&gt;&lt;span style=&quot;font-size: 14px ; font-weight: 700&quot;&gt;&amp;nbsp;RF26&lt;/span&gt;&lt;span style=&quot;font-size: 14px&quot;&gt;&amp;nbsp;Ricerca&amp;nbsp;&lt;/span&gt;&lt;span style=&quot;font-size: 14px&quot;&gt;Dipendenti&lt;/span&gt;&lt;br&gt;&lt;font face=&quot;Helvetica&quot; style=&quot;font-size: 14px ; font-weight: 700&quot;&gt;+&lt;/font&gt;&lt;span style=&quot;font-size: 14px ; font-weight: 700&quot;&gt;&amp;nbsp;RF27&lt;/span&gt;&lt;span style=&quot;font-size: 14px&quot;&gt;&amp;nbsp;Crea PDF Lista&amp;nbsp;&lt;/span&gt;&lt;/font&gt;&lt;span style=&quot;font-size: 14px&quot;&gt;Dipendenti&lt;/span&gt;" style="text;strokeColor=none;fillColor=none;html=1;whiteSpace=wrap;verticalAlign=middle;overflow=hidden;fontFamily=Times New Roman;" vertex="1" parent="WIyWlLk6GJQsqaUBKTNV-1">
          <mxGeometry x="412" y="374" width="220" height="111.5" as="geometry" />
        </mxCell>
        <mxCell id="4B_8ZGpId8C0Z32hghVD-33" value="&lt;p style=&quot;margin: 0px ; margin-top: 4px ; margin-left: 10px ; text-align: left&quot;&gt;&lt;b&gt;&lt;font style=&quot;font-size: 14px&quot; face=&quot;Times New Roman&quot;&gt;Gestione Fornitori&lt;/font&gt;&lt;/b&gt;&lt;/p&gt;" style="html=1;shape=mxgraph.sysml.package;align=left;spacingLeft=5;verticalAlign=top;spacingTop=-3;labelX=135;html=1;overflow=fill;strokeColor=#6c8ebf;strokeWidth=2;fontSize=12;fillColor=#dae8fc;shadow=1;gradientColor=#FFFFFF;" vertex="1" parent="WIyWlLk6GJQsqaUBKTNV-1">
          <mxGeometry x="403" y="497.25" width="267" height="132" as="geometry" />
        </mxCell>
        <mxCell id="4B_8ZGpId8C0Z32hghVD-34" value="&lt;font&gt;&lt;font&gt;&lt;font style=&quot;font-weight: bold ; font-size: 14px&quot;&gt;&lt;font face=&quot;Helvetica&quot;&gt;+&lt;/font&gt;&amp;nbsp;RF28&lt;/font&gt;&lt;font style=&quot;font-size: 14px&quot;&gt;&amp;nbsp;Visualizza Fornitori&lt;br&gt;&lt;/font&gt;&lt;font&gt;&lt;font style=&quot;font-weight: bold ; font-size: 14px&quot;&gt;&lt;font face=&quot;Helvetica&quot;&gt;+&lt;/font&gt;&amp;nbsp;RF29&lt;/font&gt;&lt;font style=&quot;font-size: 14px&quot;&gt;&amp;nbsp;Aggiungi Fornitori&lt;br&gt;&lt;/font&gt;&lt;font style=&quot;font-weight: bold ; font-size: 14px&quot;&gt;&lt;font face=&quot;Helvetica&quot;&gt;+&lt;/font&gt;&amp;nbsp;RF30&lt;/font&gt;&lt;font style=&quot;font-size: 14px&quot;&gt;&amp;nbsp;Modifica&amp;nbsp;&lt;/font&gt;&lt;span style=&quot;font-size: 14px&quot;&gt;Fornitori&lt;/span&gt;&lt;br&gt;&lt;font face=&quot;Helvetica&quot; style=&quot;font-size: 14px ; font-weight: bold&quot;&gt;+&lt;/font&gt;&lt;span style=&quot;font-size: 14px&quot;&gt;&lt;b&gt; RF31&lt;/b&gt;&amp;nbsp;Elimina&amp;nbsp;&lt;/span&gt;&lt;/font&gt;&lt;font style=&quot;font-size: 13px&quot;&gt;&lt;span style=&quot;font-size: 14px&quot;&gt;Fornitori&lt;/span&gt;&lt;br&gt;&lt;/font&gt;&lt;/font&gt;&lt;font face=&quot;Helvetica&quot; style=&quot;font-size: 14px ; font-weight: 700&quot;&gt;+&lt;/font&gt;&lt;span style=&quot;font-size: 14px ; font-weight: 700&quot;&gt;&amp;nbsp;RF32&lt;/span&gt;&lt;span style=&quot;font-size: 14px&quot;&gt;&amp;nbsp;Ricerca&amp;nbsp;&lt;/span&gt;&lt;span style=&quot;font-size: 14px&quot;&gt;Fornitori&lt;/span&gt;&lt;br&gt;&lt;font face=&quot;Helvetica&quot; style=&quot;font-size: 14px ; font-weight: 700&quot;&gt;+&lt;/font&gt;&lt;span style=&quot;font-size: 14px ; font-weight: 700&quot;&gt;&amp;nbsp;RF33&lt;/span&gt;&lt;span style=&quot;font-size: 14px&quot;&gt;&amp;nbsp;Crea PDF Lista&amp;nbsp;&lt;/span&gt;&lt;/font&gt;&lt;span style=&quot;font-size: 14px&quot;&gt;Fornitori&lt;/span&gt;" style="text;strokeColor=none;fillColor=none;html=1;whiteSpace=wrap;verticalAlign=middle;overflow=hidden;fontFamily=Times New Roman;" vertex="1" parent="WIyWlLk6GJQsqaUBKTNV-1">
          <mxGeometry x="411.5" y="517.75" width="220" height="111.5" as="geometry" />
        </mxCell>
      </root>
    </mxGraphModel>
  </diagram>
</mxfile>
